<?xml version="1.0" encoding="utf-8"?>
<!-- Generator: Adobe Illustrator 27.5.0, SVG Export Plug-In . SVG Version: 6.00 Build 0)  -->
<svg version="1.1" id="Layer_1" xmlns="http://www.w3.org/2000/svg" xmlns:xlink="http://www.w3.org/1999/xlink" x="0px" y="0px"
	 viewBox="0 0 4000 4000" style="enable-background:new 0 0 4000 4000;" xml:space="preserve">
<g>
	<rect style="fill-rule:evenodd;clip-rule:evenodd;fill:#FFFFFF;" width="4000" height="4000"/>
	<path style="fill-rule:evenodd;clip-rule:evenodd;" d="M1592.376,1224.623l-96.992,25.99l-96.988,25.984l-71.008-70.998
		l-70.998-71.003l25.985-96.992l25.988-96.987l96.993-25.995l96.987-25.988l71.003,71.003l71.003,71.003l-25.99,96.992
		L1592.376,1224.623z M2253.164,1678.454l190.097,190.097c115.488-39.113,248.287-12.667,340.337,79.388
		c84.09,84.09,113.433,202.182,88.068,310.017l-190.56-190.56l-96.991,25.985l-96.987,25.993l-25.99,96.987l-25.989,96.993
		l190.558,190.558c-107.835,25.365-225.925-3.978-310.015-88.068c-92.055-92.05-118.503-224.848-79.39-340.336l-191.717-191.712
		l65.755-64.728l37.181,37.18c21.029,21.033,55.445,21.033,76.478,0c21.033-21.028,21.033-55.445,0-76.483l-36.586-36.58
		L2253.164,1678.454z M1684.323,848.665c92.055,92.05,118.502,224.848,79.388,340.337l265.47,265.473l-59.343,71.132
		l-152.253-152.258c-21.033-21.033-55.452-21.033-76.485,0c-21.032,21.033-21.032,55.45,0,76.483l159.167,159.165l-59.348,71.132
		l-284.163-284.17c-115.488,39.115-248.286,12.662-340.338-79.388c-129.212-129.208-129.212-338.696,0-467.905
		C1345.625,719.456,1555.114,719.456,1684.323,848.665z"/>
	<path style="fill-rule:evenodd;clip-rule:evenodd;" d="M1592.371,2039.873l-96.987-25.99l-96.988-25.988l-71.008,71.003
		l-71.003,70.999l25.99,96.991l25.988,96.992l96.993,25.99l96.987,25.988l71.008-71.003l70.998-70.998l-25.985-96.991
		L1592.371,2039.873z M1817.584,1891.143L2224,1484.726c21.033-21.033,21.033-55.452,0-76.483c-21.033-21.033-55.45-21.033-76.483,0
		l-406.418,406.416c-21.032,21.033-21.032,55.45,0,76.483C1762.132,1912.176,1796.551,1912.176,1817.584,1891.143z
		 M1684.323,2415.831c92.05-92.055,118.502-224.853,79.388-340.337l679.55-679.55c115.488,39.108,248.287,12.661,340.337-79.393
		c84.09-84.09,113.433-202.177,88.068-310.011l-190.56,190.56l-96.991-25.99l-96.987-25.988l-25.99-96.992l-25.989-96.993
		l190.558-190.558c-107.835-25.362-225.925,3.978-310.015,88.066c-92.055,92.057-118.503,224.85-79.39,340.338l-679.548,679.548
		c-115.488-39.113-248.286-12.66-340.338,79.39c-129.207,129.212-129.207,338.697,0,467.91
		C1345.625,2545.039,1555.114,2545.039,1684.323,2415.831z"/>
	<polygon style="fill-rule:evenodd;clip-rule:evenodd;" points="1418.698,1200.821 1536.898,1169.15 1568.569,1050.945 
		1482.043,964.416 1363.843,996.09 1332.169,1114.295 	"/>
	<polygon style="fill-rule:evenodd;clip-rule:evenodd;" points="2668.775,1151.088 2777.1,1042.761 2737.449,894.788 
		2589.476,855.141 2481.156,963.468 2520.807,1111.441 	"/>
	<path style="fill-rule:evenodd;clip-rule:evenodd;" d="M3407.535,2756.901v308.395h-75.118v-184.951l-68.972,184.951h-60.623
		l-69.415-185.386v185.386h-75.123v-308.395h88.743l86.542,213.505l85.668-213.505H3407.535z M2822.38,2756.901v184.511
		c0,18.448,4.54,32.65,13.62,42.613c9.08,9.955,22.404,14.933,39.979,14.933c17.565,0,31.043-4.978,40.412-14.933
		c9.373-9.963,14.055-24.165,14.055-42.613v-184.511h75.128v184.066c0,27.533-5.858,50.817-17.575,69.85
		c-11.717,19.04-27.458,33.388-47.225,43.058c-19.772,9.662-41.807,14.495-66.113,14.495c-24.312,0-46.053-4.761-65.24-14.277
		c-19.18-9.52-34.337-23.868-45.467-43.053c-11.131-19.187-16.697-42.54-16.697-70.073v-184.066H2822.38z M2589.99,3068.37
		c-22.548,0-42.76-3.662-60.623-10.985c-17.868-7.322-32.145-18.16-42.837-32.508c-10.69-14.348-16.327-31.63-16.913-51.835h79.952
		c1.172,11.418,5.127,20.135,11.864,26.14c6.741,6,15.523,9,26.356,9c11.132,0,19.918-2.562,26.358-7.682
		c6.443-5.127,9.667-12.232,9.667-21.313c0-7.61-2.562-13.908-7.687-18.886c-5.122-4.98-11.425-9.077-18.888-12.298
		c-7.475-3.227-18.09-6.888-31.853-10.988c-19.913-6.147-36.165-12.293-48.765-18.45c-12.59-6.146-23.423-15.227-32.503-27.235
		c-9.08-12.005-13.62-27.677-13.62-47.008c0-28.697,10.398-51.175,31.19-67.432c20.792-16.257,47.882-24.383,81.273-24.383
		c33.973,0,61.356,8.126,82.148,24.383c20.792,16.257,31.923,38.876,33.392,67.87h-81.273c-0.59-9.953-4.247-17.792-10.988-23.503
		c-6.733-5.707-15.374-8.565-25.914-8.565c-9.082,0-16.403,2.418-21.965,7.247c-5.57,4.838-8.346,11.792-8.346,20.873
		c0,9.953,4.682,17.717,14.055,23.287c9.374,5.56,24.019,11.565,43.932,18.008c19.913,6.733,36.095,13.177,48.543,19.328
		c12.448,6.152,23.212,15.08,32.292,26.797c9.08,11.717,13.62,26.802,13.62,45.25c0,17.57-4.47,33.535-13.404,47.882
		c-8.928,14.353-21.893,25.772-38.882,34.267C2633.185,3064.124,2613.127,3068.37,2589.99,3068.37z M2320.251,2894.844
		c14.353,0,25.045-3.37,32.075-10.107c7.03-6.731,10.54-16.251,10.54-28.55c0-12.302-3.51-21.827-10.54-28.558
		c-7.03-6.737-17.722-10.1-32.075-10.1h-40.852v77.315H2320.251z M2439.306,2856.187c0,17.863-4.1,34.187-12.297,48.978
		c-8.202,14.788-20.797,26.722-37.782,35.802c-16.988,9.08-38.073,13.62-63.26,13.62h-46.568v110.708h-75.123v-308.395h121.691
		c24.595,0,45.392,4.247,62.382,12.741c16.988,8.493,29.725,20.205,38.22,35.14
		C2435.064,2819.72,2439.306,2836.856,2439.306,2856.187z M2149.799,2756.901v308.395h-75.118v-308.395H2149.799z
		 M2020.652,2756.901v308.395h-75.123v-184.951l-68.972,184.951h-60.623l-69.415-185.386v185.386h-75.123v-308.395h88.743
		l86.542,213.505l85.668-213.505H2020.652z M1508.853,2817.084v62.387h100.602v57.986h-100.602v67.653h113.783v60.185h-188.906
		v-308.395h188.906v60.183H1508.853z M1222.426,2895.727h46.568c13.762,0,24.09-3.373,30.968-10.112
		c6.888-6.732,10.328-16.252,10.328-28.553c0-11.716-3.44-20.938-10.328-27.677c-6.878-6.732-17.207-10.105-30.968-10.105h-46.568
		V2895.727z M1304.579,3065.295l-64.138-116.42h-18.015v116.42h-75.123v-308.395h126.085c24.308,0,45.028,4.247,62.16,12.741
		c17.135,8.493,29.948,20.135,38.442,34.922c8.49,14.793,12.738,31.267,12.738,49.422c0,20.5-5.783,38.806-17.348,54.917
		c-11.57,16.107-28.63,27.525-51.185,34.267l71.168,122.127H1304.579z M947.863,2999.839c24.6,0,44.295-8.202,59.088-24.605
		c14.787-16.398,22.18-38.075,22.18-65.013c0-27.24-7.393-48.987-22.18-65.238c-14.793-16.253-34.488-24.383-59.088-24.383
		c-24.893,0-44.735,8.055-59.528,24.16c-14.787,16.112-22.18,37.933-22.18,65.462c0,27.237,7.393,48.983,22.18,65.24
		C903.128,2991.707,922.97,2999.839,947.863,2999.839z M947.863,3068.37c-28.993,0-55.573-6.741-79.735-20.212
		c-24.165-13.468-43.345-32.287-57.552-56.452c-14.202-24.155-21.303-51.325-21.303-81.487c0-30.165,7.102-57.255,21.303-81.273
		c14.207-24.015,33.387-42.762,57.552-56.23c24.162-13.473,50.742-20.212,79.735-20.212c28.993,0,55.568,6.738,79.733,20.212
		c24.165,13.468,43.195,32.215,57.113,56.23c13.908,24.018,20.863,51.108,20.863,81.273c0,30.162-7.025,57.332-21.09,81.487
		c-14.055,24.165-33.09,42.983-57.103,56.452C1003.359,3061.629,976.856,3068.37,947.863,3068.37z M2872.137,3132.159h-13.941
		v113.482h18.317v-80.083l64.365,80.083h13.777v-113.482h-18.155v80.737L2872.137,3132.159z M2721.702,3205.274h-47.985
		l23.995-53.99L2721.702,3205.274z M2739.215,3245.64h19.29l-50.905-113.482h-19.782l-50.905,113.482h19.295l10.7-23.83h61.441
		L2739.215,3245.64z M2542.256,3146.584c-11.565-11.457-25.563-17.183-41.995-17.183c-18.59,0-33.18,5.812-43.767,17.428
		c-10.593,11.617-15.888,26.022-15.888,43.205c0,7.785,1.185,15.052,3.562,21.803c2.382,6.755,5.897,12.863,10.54,18.32
		c4.648,5.458,10.89,9.78,18.723,12.973c7.838,3.185,16.781,4.777,26.83,4.777c17.725,0,32.588-6.59,44.588-19.772V3181.6h-48.477
		v16.218h31.612v23.023c-7.995,6.693-17.235,10.048-27.723,10.048c-13.828,0-24.26-3.95-31.285-11.835
		c-7.025-7.895-10.54-17.565-10.54-29.022c-0.108-12.425,3.623-22.862,11.187-31.285c7.563-8.433,17.778-12.648,30.638-12.648
		c5.41,0,10.895,1.055,16.46,3.162c5.56,2.107,10.293,5.107,14.182,8.995L2542.256,3146.584z M2243.971,3189.707
		c0-12.747,3.538-23.125,10.62-31.128c7.078-7.993,16.993-11.995,29.745-11.995c8.755,0.108,16.243,2.352,22.46,6.731
		c6.208,4.38,10.64,9.695,13.29,15.969c2.645,6.27,3.968,13.077,3.968,20.423c0,11.892-3.345,21.808-10.048,29.75
		c-6.7,7.947-16.697,11.915-29.992,11.915c-6.703,0-12.675-1.215-17.915-3.647c-5.239-2.428-9.428-5.67-12.562-9.723
		c-3.132-4.053-5.485-8.485-7.053-13.295C2244.916,3199.899,2244.079,3194.895,2243.971,3189.707z M2284.336,3130.047
		c-17.073,0-31.067,5.595-41.985,16.781c-10.918,11.187-16.375,25.422-16.375,42.719c0,7.672,1.213,14.943,3.647,21.808
		c2.433,6.86,5.948,13.048,10.54,18.557c4.593,5.518,10.673,9.917,18.237,13.218c7.563,3.293,16.105,4.942,25.615,4.942
		c9.512,0,18.048-1.597,25.612-4.78c7.573-3.193,13.648-7.54,18.245-13.048c4.594-5.518,8.103-11.76,10.532-18.728
		c2.433-6.973,3.646-14.348,3.646-22.13c0-16.427-5.022-30.396-15.07-41.91C2316.921,3135.967,2302.709,3130.157,2284.336,3130.047z
		 M2056.577,3132.159v113.482h77.977v-16.857h-59.822v-96.625H2056.577z M1947.159,3148.047
		c-8.003-12.755-22.105-19.128-42.317-19.128c-5.403,0-10.587,0.613-15.562,1.862c-4.97,1.237-9.623,3.108-13.942,5.593
		c-4.323,2.485-7.785,5.887-10.375,10.21c-2.593,4.327-3.893,9.297-3.893,14.918c0,4.65,0.837,8.778,2.513,12.402
		c1.678,3.62,3.785,6.568,6.327,8.835c2.537,2.268,5.863,4.215,9.968,5.84c4.105,1.615,8.027,2.863,11.75,3.722
		c3.732,0.87,8.187,1.627,13.375,2.273c9.08,1.19,16.185,3.16,21.322,5.915c5.13,2.755,7.7,7.002,7.7,12.727
		c0,4.432-1.484,8.132-4.455,11.103c-2.977,2.977-6.515,5.003-10.62,6.085c-4.107,1.077-8.647,1.615-13.617,1.615
		c-16.213,0-27.992-6.207-35.348-18.642l-13.615,9.08c9.293,17.187,25.563,25.777,48.798,25.777c8.428,0,16.02-1.11,22.777-3.327
		c6.755-2.215,12.481-6.023,17.182-11.423c4.702-5.405,7.055-12.16,7.055-20.268c0-6.047-1.215-11.267-3.648-15.642
		c-2.428-4.38-5.967-7.833-10.615-10.38c-4.648-2.537-9.35-4.455-14.103-5.753c-4.757-1.295-10.488-2.433-17.187-3.401
		c-8.972-1.3-15.808-3.082-20.508-5.348c-4.702-2.273-7.053-5.892-7.053-10.867c0-5.292,2.432-9.482,7.293-12.562
		c4.867-3.08,11.188-4.625,18.973-4.625c5.938,0.114,11.423,1.275,16.45,3.487c5.028,2.215,8.892,5.272,11.595,9.16
		L1947.159,3148.047z M1717.611,3148.69c7.025,0,12.373,2.083,16.053,6.24c3.67,4.163,5.508,9.057,5.508,14.675
		c0,5.73-1.838,10.54-5.508,14.433c-3.68,3.888-9.08,5.833-16.22,5.833h-34.525v-41.182H1717.611z M1760.734,3242.399
		l-33.883-37.777c10.483-1.512,18.237-5.537,23.263-12.075c5.027-6.538,7.54-14.297,7.54-23.263c0-10.157-3.538-18.883-10.62-26.183
		c-7.078-7.293-16.885-10.942-29.423-10.942c-5.835,0-14.646-0.028-26.428-0.08c-11.778-0.062-20.59-0.085-26.42-0.085v113.647
		h18.157v-39.232h23.99l34.532,39.232h21.24L1760.734,3242.399z M1535.729,3132.32v66.307c0,10.588-2.918,18.78-8.758,24.562
		c-5.83,5.783-13.393,8.4-22.697,7.862c-8.64-0.325-15.613-3.293-20.91-8.92c-5.295-5.617-7.942-13.455-7.942-23.503v-66.307h-18
		v66.307c0,15.35,4.465,27.293,13.375,35.825c8.92,8.542,20.078,12.973,33.477,13.295c14.382,0.538,26.212-3.487,35.51-12.08
		c9.292-8.59,13.942-20.935,13.942-37.04v-66.307H1535.729z M1255.28,3189.707c0-12.747,3.538-23.125,10.62-31.128
		c7.078-7.993,16.995-11.995,29.745-11.995c8.755,0.108,16.243,2.352,22.46,6.731c6.208,4.38,10.64,9.695,13.29,15.969
		c2.65,6.27,3.973,13.077,3.973,20.423c0,11.892-3.35,21.808-10.053,29.75c-6.7,7.947-16.697,11.915-29.99,11.915
		c-6.705,0-12.677-1.215-17.915-3.647c-5.24-2.428-9.43-5.67-12.563-9.723c-3.132-4.053-5.485-8.485-7.048-13.295
		C1256.224,3199.899,1255.388,3194.895,1255.28,3189.707z M1295.644,3130.047c-17.073,0-31.067,5.595-41.985,16.781
		c-10.913,11.187-16.375,25.422-16.375,42.719c0,7.672,1.215,14.943,3.647,21.808c2.433,6.86,5.948,13.048,10.54,18.557
		c4.593,5.518,10.673,9.917,18.237,13.218c7.563,3.293,16.107,4.942,25.617,4.942c9.51,0,18.047-1.597,25.61-4.78
		c7.573-3.193,13.65-7.54,18.247-13.048c4.592-5.518,8.102-11.76,10.53-18.728c2.433-6.973,3.647-14.348,3.647-22.13
		c0-16.427-5.022-30.396-15.07-41.91C1328.234,3135.967,1314.018,3130.157,1295.644,3130.047z M1066.918,3132.159h-21.567v0.808
		l43.772,66.147v46.527h18.16v-46.527l45.072-66.147v-0.808h-21.888l-32.263,50.093L1066.918,3132.159z M667.583,3007.307h98.408
		v57.988H592.46v-308.395h75.123V3007.307z"/>
</g>
</svg>
